<?xml version="1.0" standalone="no"?>
<!DOCTYPE svg PUBLIC "-//W3C//DTD SVG 20010904//EN"
 "http://www.w3.org/TR/2001/REC-SVG-20010904/DTD/svg10.dtd">
<svg version="1.0" xmlns="http://www.w3.org/2000/svg"
 width="460.000000pt" height="460.000000pt" viewBox="0 0 460.000000 460.000000"
 preserveAspectRatio="xMidYMid meet">
<metadata>
Created by potrace 1.14, written by Peter Selinger 2001-2017
</metadata>
<g transform="translate(0.000000,460.000000) scale(0.100000,-0.100000)"
fill="#000000" stroke="none">
<path d="M0 4020 l0 -580 580 0 580 0 0 -285 0 -285 284 0 c258 0 285 -2 288
-17 2 -9 2 -271 0 -583 l-2 -567 -23 3 c-12 1 -267 3 -567 3 l-545 1 3 295 3
295 -301 0 -300 0 0 -1150 0 -1150 2300 0 2300 0 0 1150 0 1150 -280 0 -281 0
3 -295 3 -295 -582 0 -583 0 0 580 0 580 295 0 295 0 0 285 0 285 565 0 565 0
0 580 0 580 -2300 0 -2300 0 0 -580z"/>
</g>
</svg>
